name GIL01_slow3.mot
datacolumns 153
datarows 4
range 1.35833335 1.38333333
endheader

                time	           pelvis_tx	           pelvis_ty	           pelvis_tz	         pelvis_tilt	         pelvis_list	     pelvis_rotation	       hip_flexion_r	     hip_adduction_r	      hip_rotation_r	        knee_angle_r	       ankle_angle_r	    subtalar_angle_r	         mtp_angle_r	       hip_flexion_l	     hip_adduction_l	      hip_rotation_l	        knee_angle_l	       ankle_angle_l	    subtalar_angle_l	         mtp_angle_l	    lumbar_extension	      lumbar_bending	     lumbar_rotation	     ground_force_vx	     ground_force_vy	     ground_force_vz	     ground_force_px	     ground_force_py	     ground_force_pz	     ground_force_vx	     ground_force_vy	     ground_force_vz	     ground_force_px	     ground_force_py	     ground_force_pz	     ground_torque_x	     ground_torque_y	     ground_torque_z	     ground_torque_x	     ground_torque_y	     ground_torque_z	    ground_marker_px	    ground_marker_py	    ground_marker_pz	    ground_marker_px	    ground_marker_py	    ground_marker_pz	    ground_marker_px	    ground_marker_py	    ground_marker_pz	    ground_marker_px	    ground_marker_py	    ground_marker_pz	    ground_marker_px	    ground_marker_py	    ground_marker_pz	    ground_marker_px	    ground_marker_py	    ground_marker_pz	    ground_marker_px	    ground_marker_py	    ground_marker_pz	    ground_marker_px	    ground_marker_py	    ground_marker_pz	    ground_marker_px	    ground_marker_py	    ground_marker_pz	    ground_marker_px	    ground_marker_py	    ground_marker_pz	    ground_marker_px	    ground_marker_py	    ground_marker_pz	    ground_marker_px	    ground_marker_py	    ground_marker_pz	    ground_marker_px	    ground_marker_py	    ground_marker_pz	    ground_marker_px	    ground_marker_py	    ground_marker_pz	    ground_marker_px	    ground_marker_py	    ground_marker_pz	    ground_marker_px	    ground_marker_py	    ground_marker_pz	    ground_marker_px	    ground_marker_py	    ground_marker_pz	    ground_marker_px	    ground_marker_py	    ground_marker_pz	    ground_marker_px	    ground_marker_py	    ground_marker_pz	    ground_marker_px	    ground_marker_py	    ground_marker_pz	    ground_marker_px	    ground_marker_py	    ground_marker_pz	    ground_marker_px	    ground_marker_py	    ground_marker_pz	    ground_marker_px	    ground_marker_py	    ground_marker_pz	    ground_marker_px	    ground_marker_py	    ground_marker_pz	    ground_marker_px	    ground_marker_py	    ground_marker_pz	    ground_marker_px	    ground_marker_py	    ground_marker_pz	    ground_marker_px	    ground_marker_py	    ground_marker_pz	    ground_marker_px	    ground_marker_py	    ground_marker_pz	    ground_marker_px	    ground_marker_py	    ground_marker_pz	    ground_marker_px	    ground_marker_py	    ground_marker_pz	    ground_marker_px	    ground_marker_py	    ground_marker_pz	    ground_marker_px	    ground_marker_py	    ground_marker_pz	    ground_marker_px	    ground_marker_py	    ground_marker_pz	    ground_marker_px	    ground_marker_py	    ground_marker_pz	    ground_marker_px	    ground_marker_py	    ground_marker_pz	    ground_marker_px	    ground_marker_py	    ground_marker_pz	    ground_marker_px	    ground_marker_py	    ground_marker_pz	
          1.35833335	         -0.24879241	          0.81393880	          0.27437732	         -3.36582756	          1.99012232	         -6.70769405	          1.00826263	          6.32338428	         -3.75514460	         -2.87498188	          4.94418049	          0.00000000	          0.00000000	         24.12687302	         -4.81042957	         -1.07438171	        -34.39410400	          1.97978091	          0.00000000	          0.00000000	         -5.45356083	          2.66045165	          2.76911640	          6.05202545	        393.58036279	          5.67896140	         -0.33088193	          0.00000000	          0.27798184	          0.00000000	          0.00000000	          0.00000000	         -0.65125665	          0.00000000	          0.20369371	          0.00000000	          1.54616064	          0.00000000	          0.00000000	          0.00000000	          0.00000000	         -0.30954674	          0.74670655	          0.27018821	         -0.32831711	          0.74679923	          0.33011159	         -0.31244886	          0.74709976	          0.20076618	         -0.33819720	          0.40900603	          0.29035661	         -0.19388302	          0.43922320	          0.18669726	         -0.36778525	          0.06564922	          0.25984249	         -0.27401951	          0.09992612	          0.15336500	         -0.24879241	          0.81393880	          0.27437732	         -0.26113123	          0.81370515	          0.37495372	         -0.23645358	          0.81417245	          0.17380092	         -0.40755808	          0.85907602	          0.28675997	         -0.40292343	          0.85586601	          0.23204854	         -0.34866953	          0.40299729	          0.34401500	         -0.18981999	          0.44326454	          0.13249940	         -0.32341906	          0.41873217	          0.24766703	         -0.19027986	          0.40626103	          0.22745107	         -0.38124821	          0.06370372	          0.29478836	         -0.27476630	          0.10371748	          0.11656734	         -0.36483148	          0.07061197	          0.23498701	         -0.27238339	          0.09851035	          0.18302049	         -0.39123031	          1.22140479	          0.25834015	         -0.28531581	          1.16477156	          0.30969504	         -0.27916607	          1.16897738	          0.23403135	         -0.29674289	          1.16529262	          0.26919481	         -0.26612553	          1.08391988	          0.26957682	         -0.25347257	          0.51887214	          0.42957380	         -0.09935663	          0.60249388	          0.19916670	         -0.31921285	          0.57946020	          0.39038029	         -0.18090603	          0.63356233	          0.15565231	         -0.31834373	          0.49656647	          0.36679646	         -0.15923691	          0.54876888	          0.15570377	         -0.39750430	          0.16871195	          0.37855545	         -0.21843401	          0.22208279	          0.05489489	         -0.38603792	          0.13972321	          0.30161411	         -0.25285196	          0.18389738	          0.12295471	         -0.27563250	          0.03665550	          0.28750464	         -0.18274626	          0.05212229	          0.14586958	
          1.36666667	         -0.24368183	          0.81343132	          0.27432919	         -3.41274834	          2.03912568	         -6.64828491	          0.59219170	          6.23768997	         -3.43738317	         -2.79530215	          5.33938742	          0.00000000	          0.00000000	         24.30856705	         -4.66055918	         -0.93196732	        -32.10316467	          1.90387213	          0.00000000	          0.00000000	         -5.36509275	          2.62541962	          3.06588936	          6.91608752	        394.13743167	          4.25707446	         -0.32856381	          0.00000000	          0.27826239	          0.00000000	          0.00000000	          0.00000000	         -0.64901251	          0.00000000	          0.20408432	          0.00000000	          1.31184741	          0.00000000	          0.00000000	          0.00000000	          0.00000000	         -0.30557549	          0.74526215	          0.27001840	         -0.32321602	          0.74629271	          0.33005106	         -0.30744737	          0.74672300	          0.20069382	         -0.33588585	          0.40873286	          0.29015192	         -0.18812068	          0.43875128	          0.18715760	         -0.36778018	          0.06558200	          0.25968981	         -0.25393254	          0.09559536	          0.15381511	         -0.24368183	          0.81343132	          0.27432919	         -0.25595248	          0.81309646	          0.37499070	         -0.23141119	          0.81376618	          0.17366770	         -0.40230522	          0.85870981	          0.28675994	         -0.39778474	          0.85546899	          0.23205529	         -0.34606135	          0.40276513	          0.34387198	         -0.18393126	          0.44275635	          0.13296665	         -0.31952050	          0.41865623	          0.24733277	         -0.18413603	          0.40574431	          0.22808342	         -0.38108164	          0.06371026	          0.29470152	         -0.25445327	          0.09927215	          0.11700193	         -0.36467278	          0.07051738	          0.23486893	         -0.25257754	          0.09425317	          0.18349709	         -0.38649118	          1.22076762	          0.25886777	         -0.28022510	          1.16418445	          0.30964500	         -0.27452332	          1.16848159	          0.23383686	         -0.29189020	          1.16473901	          0.26915759	         -0.26118815	          1.08339751	          0.26927167	         -0.24946991	          0.51807737	          0.42888534	         -0.09429860	          0.60214043	          0.19971061	         -0.31490380	          0.57915288	          0.39013204	         -0.17579059	          0.63304001	          0.15609621	         -0.31419358	          0.49650529	          0.36654907	         -0.15367074	          0.54833317	          0.15627590	         -0.39624918	          0.16874251	          0.37852144	         -0.20239669	          0.21990639	          0.05560650	         -0.38517553	          0.13965157	          0.30172706	         -0.23448335	          0.18073454	          0.12300386	         -0.27553967	          0.03662412	          0.28734192	         -0.16064061	          0.05140255	          0.14761631	
          1.37500000	         -0.23851469	          0.81289387	          0.27421039	         -3.46103764	          2.04973888	         -6.59387875	          0.17568111	          6.16143227	         -3.18572450	         -2.73150516	          5.74851990	          0.00000000	          0.00000000	         24.45467377	         -4.54751492	         -0.88887411	        -29.76513290	          1.75236022	          0.00000000	          0.00000000	         -5.24520254	          2.56946683	          3.31212735	          7.59351703	        393.34911601	          1.45443591	         -0.32584360	          0.00000000	          0.27885471	          0.00000000	          0.00000000	          0.00000000	         -0.64669104	          0.00000000	          0.20444757	          0.00000000	          1.05014551	          0.00000000	          0.00000000	          0.00000000	          0.00000000	         -0.30120343	          0.74397051	          0.27038339	         -0.31805497	          0.74579561	          0.32997218	         -0.30239788	          0.74626899	          0.20060152	         -0.33352175	          0.40843955	          0.29010102	         -0.18249507	          0.43815276	          0.18755950	         -0.36779591	          0.06551035	          0.25961599	         -0.23373935	          0.09168789	          0.15444806	         -0.23851469	          0.81289387	          0.27421039	         -0.25070950	          0.81252515	          0.37497333	         -0.22631988	          0.81326258	          0.17344746	         -0.39695770	          0.85830641	          0.28666183	         -0.39230475	          0.85494769	          0.23199916	         -0.34345666	          0.40253979	          0.34387359	         -0.17828193	          0.44208628	          0.13336514	         -0.31664428	          0.41857746	          0.24712828	         -0.17883028	          0.40513626	          0.22852790	         -0.38093981	          0.06370603	          0.29469067	         -0.23412429	          0.09526414	          0.11762331	         -0.36465874	          0.07046692	          0.23484160	         -0.23277454	          0.09041194	          0.18413486	         -0.38174647	          1.22004223	          0.25939366	         -0.27511707	          1.16362417	          0.30948761	         -0.26981980	          1.16791523	          0.23365627	         -0.28699547	          1.16415441	          0.26906508	         -0.25617683	          1.08285689	          0.26903224	         -0.24553928	          0.51733333	          0.42839041	         -0.08928475	          0.60158020	          0.19990984	         -0.31109089	          0.57883525	          0.39008042	         -0.17086788	          0.63237268	          0.15633856	         -0.31062433	          0.49633166	          0.36642811	         -0.14863157	          0.54771572	          0.15657231	         -0.39501181	          0.16876182	          0.37860805	         -0.18665279	          0.21806042	          0.05637905	         -0.38432512	          0.13959377	          0.30197534	         -0.21908699	          0.17751852	          0.12378325	         -0.27549034	          0.03659260	          0.28724959	         -0.13868333	          0.05110179	          0.14958021	
          1.38333333	         -0.23326421	          0.81233972	          0.27403593	         -3.48217106	          2.03626132	         -6.56750107	         -0.27005863	          6.08730316	         -3.02245545	         -2.68405557	          6.16347075	          0.00000000	          0.00000000	         24.52231216	         -4.46345329	         -0.95763135	        -27.37393379	          1.54196715	          0.00000000	          0.00000000	         -5.14348888	          2.43025708	          3.65068150	          8.03657754	        392.42668147	         -1.64511511	         -0.32280798	          0.00000000	          0.27958212	          0.00000000	          0.00000000	          0.00000000	         -0.64429926	          0.00000000	          0.20480437	          0.00000000	          0.79052179	          0.00000000	          0.00000000	          0.00000000	          0.00000000	         -0.29358274	          0.74557287	          0.27173087	         -0.31279987	          0.74527526	          0.32984492	         -0.29720813	          0.74572968	          0.20046632	         -0.33106366	          0.40810707	          0.29014489	         -0.17701419	          0.43744171	          0.18791232	         -0.36780643	          0.06544051	          0.25958344	         -0.21351987	          0.08825711	          0.15525660	         -0.23326421	          0.81233972	          0.27403593	         -0.24542055	          0.81198543	          0.37490797	         -0.22110787	          0.81269401	          0.17316389	         -0.39193141	          0.85789299	          0.28647539	         -0.38671130	          0.85433424	          0.23190498	         -0.34085959	          0.40230203	          0.34395328	         -0.17286319	          0.44126749	          0.13370547	         -0.31249073	          0.41809139	          0.24751440	         -0.17450172	          0.40445796	          0.22871605	         -0.38080636	          0.06370116	          0.29471499	         -0.21386956	          0.09173840	          0.11842240	         -0.36465976	          0.07040363	          0.23484080	         -0.21288891	          0.08709713	          0.18490103	         -0.37696987	          1.21925735	          0.25984082	         -0.26994282	          1.16311514	          0.30921984	         -0.26516205	          1.16726887	          0.23338582	         -0.28209344	          1.16354990	          0.26889634	         -0.25115138	          1.08229947	          0.26880988	         -0.24174526	          0.51660186	          0.42810926	         -0.08432836	          0.60082519	          0.19980544	         -0.30741522	          0.57854432	          0.39014852	         -0.16610263	          0.63157880	          0.15635741	         -0.30664316	          0.49616662	          0.36669078	         -0.14413466	          0.54695082	          0.15657312	         -0.39378923	          0.16876204	          0.37875000	         -0.17129211	          0.21657199	          0.05720164	         -0.38363442	          0.13976103	          0.30206192	         -0.20197567	          0.17494304	          0.12430023	         -0.27547255	          0.03655192	          0.28719461	         -0.11692712	          0.05127213	          0.15167135	
